# xmcd
#
# Track frame offsets:
# 150
# 21640
# 41280
# 60315
# 79460
# 102617
# 123627
# 143705
# 162275
#
# Disc length: 2396 seconds
#
#
# Revision: 4
# Processed by: cddbd v1.5.2PL0 Copyright (c) Steve Scherf et al.
# Submitted via: FreeRIP 2.942 
#
DISCID=7b095a09
DTITLE=Herbert Grönemeyer - Luxus
DYEAR=1990
DGENRE=Rock
TTITLE0=Hartgeld
TTITLE1=Deine Liebe klebt
TTITLE2=Video
TTITLE3=Ich will mehr
TTITLE4=Haarscharf
TTITLE5=Luxus
TTITLE6=Marie
TTITLE7=Freunde
TTITLE8=Sie
EXTD=
EXTT0=
EXTT1=
EXTT2=
EXTT3=
EXTT4=
EXTT5=
EXTT6=
EXTT7=
EXTT8=
PLAYORDER=
